# xmcd CD database file
#
# Track frame offsets:
#	150
#	17320
#	45545
#	75981
#	104932
#	132499
#	158587
#	182966
#	214551
#	236460
#	260315
#	288533
#	298577
#	323272
#	349278
#
# Disc length: 4796 seconds
#
# Revision: 2
# Processed by: cddbd v1.5.2PL0 Copyright (c) Steve Scherf et al.
# Submitted via: CDex 1.51
#
DISCID=cf12ba0f
DTITLE=Various Artist - The Best Of Jazzthing - Next Generation
DYEAR=2010
DGENRE=Jazz
TTITLE0=Tim Rodig - Pussy Galore
TTITLE1=Croomp - Ephescopeology
TTITLE2=Metamorphosis - Un retour?
TTITLE3=Ignaz Dinne - Back home
TTITLE4=Max Frankl Quintet - Sturmvogel
TTITLE5=Nadia Maria Fischer - Sorry
TTITLE6=Andi Kissenbecks Club Boogaloo - Refinnej Blues
TTITLE7=Sebastian Gahler Trio - Meditation
TTITLE8=Cyminology - Owas
TTITLE9=Frederik Köster Quartet - 200 Turkeys
TTITLE10=Lisbeth Quartet - False
TTITLE11=Esther Kaiser - Miriam
TTITLE12=Benjamin Schaefer Trio - Waltz for Richie
TTITLE13=Felix Heidemann Groove Connection - Hip Teens
TTITLE14=Tre - Bigmama
EXTD=YEAR: 2010
EXTT0=
EXTT1=
EXTT2=
EXTT3=
EXTT4=
EXTT5=
EXTT6=
EXTT7=
EXTT8=
EXTT9=
EXTT10=
EXTT11=
EXTT12=
EXTT13=
EXTT14=
PLAYORDER=
